<svg id="svg" version="1.1" xmlns="http://www.w3.org/2000/svg" xmlns:xlink="http://www.w3.org/1999/xlink" width="400" height="354.2039355992845" viewBox="0, 0, 400,354.2039355992845"><g id="svgg"><path id="path0" d="M199.468 104.643 C 198.469 106.338,169.446 156.624,126.815 230.525 C 112.968 254.529,101.689 274.219,101.750 274.281 C 101.851 274.382,297.019 274.796,297.120 274.695 C 297.143 274.671,287.396 257.319,275.459 236.133 C 263.521 214.948,248.433 188.169,241.930 176.625 C 216.726 131.886,200.530 103.158,200.477 103.093 C 200.447 103.056,199.992 103.753,199.468 104.643 M222.089 162.915 C 231.981 164.791,233.737 177.832,224.687 182.201 C 218.679 185.102,211.466 181.253,210.315 174.531 C 209.175 167.878,215.477 161.661,222.089 162.915 M193.823 166.491 C 199.591 166.945,199.993 167.137,203.418 171.069 C 210.185 178.840,215.231 186.959,215.222 190.063 C 215.214 192.832,210.632 202.141,202.624 215.659 C 201.378 217.763,200.363 219.555,200.369 219.641 C 200.375 219.727,207.271 225.398,215.694 232.244 L 231.008 244.690 231.695 243.861 C 237.270 237.138,247.737 238.231,252.931 246.079 L 253.575 247.054 255.887 247.154 C 260.564 247.356,262.631 249.194,263.343 253.782 C 263.490 254.733,263.564 255.758,263.506 256.061 C 263.415 256.536,263.535 256.645,264.389 256.860 C 265.792 257.213,266.937 258.059,267.574 259.214 C 268.027 260.034,268.280 260.235,269.006 260.350 C 273.845 261.120,277.131 263.632,277.971 267.203 L 278.125 267.859 238.868 267.859 L 199.612 267.859 200.164 266.859 C 202.168 263.228,205.506 261.279,210.912 260.582 C 211.847 260.461,212.045 260.351,212.045 259.948 C 212.045 257.507,216.166 253.560,218.724 253.550 C 219.189 253.549,219.450 253.305,219.903 252.451 C 220.746 250.861,222.657 249.103,224.495 248.227 C 225.373 247.808,226.092 247.412,226.092 247.346 C 226.093 247.255,211.114 235.127,200.230 226.408 L 198.954 225.385 200.117 227.600 C 201.953 231.097,202.013 231.579,200.944 234.262 C 198.304 240.894,186.436 264.822,185.026 266.357 C 181.330 270.382,173.766 267.904,173.448 262.563 C 173.319 260.399,173.184 260.726,180.195 246.207 L 186.332 233.499 185.512 232.492 C 185.062 231.938,181.994 228.183,178.696 224.147 L 172.700 216.809 172.843 225.101 L 172.987 233.393 169.005 248.420 C 164.709 264.635,164.585 265.009,163.012 266.394 C 159.740 269.273,153.144 267.737,151.972 263.823 C 151.391 261.886,151.614 260.716,154.968 248.087 L 158.236 235.778 158.248 219.797 C 158.260 201.966,158.139 203.246,159.968 201.525 C 160.471 201.052,161.399 200.318,162.029 199.894 C 163.107 199.170,163.156 199.092,162.842 198.608 C 162.658 198.324,162.039 197.347,161.466 196.437 C 160.894 195.526,159.572 193.970,158.529 192.978 C 156.414 190.967,154.800 188.689,154.800 187.716 C 154.800 185.612,157.969 185.876,160.617 188.201 L 161.442 188.925 161.716 187.546 C 163.953 176.300,166.649 168.844,168.873 167.748 C 171.443 166.481,185.012 165.798,193.823 166.491 M176.219 180.492 C 175.864 180.546,175.519 180.771,175.451 180.993 C 175.223 181.734,173.870 188.261,173.936 188.300 C 173.972 188.321,175.703 186.534,177.783 184.330 L 181.566 180.322 179.215 180.358 C 177.921 180.377,176.573 180.438,176.219 180.492 M189.863 204.309 C 187.042 205.541,184.527 206.640,184.272 206.751 C 183.871 206.926,188.871 211.640,189.828 211.989 C 189.922 212.023,190.611 210.896,191.359 209.484 C 192.107 208.072,193.309 205.817,194.028 204.472 C 194.748 203.128,195.260 202.037,195.164 202.048 C 195.069 202.059,192.683 203.076,189.863 204.309 " stroke="none" fill="#faea35" fill-rule="evenodd"></path><path id="path1" d="M197.257 43.961 C 197.191 44.027,196.750 44.142,196.276 44.216 C 191.827 44.916,187.709 48.694,184.025 55.456 C 183.524 56.374,182.862 57.500,182.553 57.956 C 182.244 58.413,181.992 58.855,181.992 58.938 C 181.992 59.021,180.811 61.104,179.368 63.566 C 177.925 66.028,176.744 68.080,176.744 68.126 C 176.744 68.171,176.315 68.910,175.790 69.767 C 175.265 70.625,174.836 71.376,174.836 71.437 C 174.836 71.498,174.407 72.249,173.882 73.107 C 173.357 73.964,172.928 74.703,172.928 74.749 C 172.928 74.794,171.747 76.846,170.304 79.308 C 168.861 81.770,167.680 83.822,167.680 83.868 C 167.680 83.914,167.251 84.653,166.726 85.510 C 166.202 86.367,165.772 87.123,165.772 87.190 C 165.772 87.256,165.343 87.990,164.818 88.821 C 164.293 89.652,163.864 90.391,163.864 90.463 C 163.864 90.535,163.237 91.650,162.471 92.941 C 160.253 96.680,156.708 102.852,156.708 102.975 C 156.708 103.036,156.506 103.372,156.259 103.720 C 156.012 104.068,155.487 104.943,155.092 105.665 C 154.697 106.386,153.843 107.889,153.195 109.004 C 149.631 115.138,144.177 124.598,143.163 126.404 C 142.836 126.987,142.243 128.007,141.846 128.670 C 141.449 129.332,140.731 130.572,140.250 131.425 C 139.769 132.278,138.322 134.800,137.035 137.030 C 135.748 139.261,134.484 141.461,134.226 141.920 C 133.346 143.485,129.207 150.621,128.168 152.364 C 127.598 153.320,127.132 154.150,127.132 154.208 C 127.132 154.267,126.702 155.016,126.178 155.874 C 125.653 156.731,125.224 157.486,125.224 157.552 C 125.224 157.618,124.972 158.072,124.665 158.562 C 124.082 159.491,118.909 168.441,117.878 170.304 C 117.551 170.894,117.102 171.646,116.879 171.974 C 116.656 172.302,116.313 172.892,116.116 173.286 C 115.919 173.679,114.759 175.719,113.538 177.818 C 112.317 179.917,111.048 182.117,110.719 182.707 C 110.390 183.298,109.870 184.181,109.563 184.670 C 109.255 185.160,109.004 185.618,109.004 185.689 C 109.004 185.760,108.753 186.218,108.446 186.707 C 108.139 187.197,107.616 188.080,107.285 188.670 C 106.954 189.261,105.687 191.461,104.469 193.560 C 103.251 195.659,101.985 197.859,101.656 198.450 C 101.326 199.040,100.806 199.923,100.499 200.413 C 100.192 200.902,99.940 201.360,99.940 201.431 C 99.940 201.502,99.689 201.960,99.382 202.450 C 99.075 202.939,98.552 203.822,98.220 204.413 C 97.092 206.420,94.867 210.251,93.824 211.982 C 93.252 212.930,92.785 213.765,92.785 213.836 C 92.785 213.907,92.355 214.645,91.831 215.476 C 91.306 216.307,90.877 217.058,90.877 217.144 C 90.877 217.231,90.589 217.756,90.238 218.311 C 89.689 219.179,87.524 222.921,85.445 226.595 C 85.111 227.185,84.586 228.069,84.279 228.558 C 83.972 229.048,83.721 229.502,83.721 229.567 C 83.721 229.633,83.342 230.279,82.878 231.004 C 82.415 231.728,81.967 232.508,81.882 232.738 C 81.798 232.967,81.460 233.584,81.132 234.109 C 80.803 234.633,79.733 236.458,78.754 238.163 C 77.774 239.869,76.629 241.855,76.209 242.576 C 75.108 244.470,68.951 255.185,68.397 256.172 C 68.139 256.631,67.846 257.114,67.747 257.245 C 67.647 257.376,67.270 258.019,66.910 258.674 C 66.549 259.329,65.230 261.636,63.978 263.802 C 62.726 265.968,61.436 268.223,61.111 268.813 C 60.786 269.404,60.442 269.994,60.346 270.125 C 60.205 270.317,53.842 281.363,52.236 284.203 C 52.012 284.600,51.083 286.210,50.173 287.781 C 47.435 292.505,47.070 293.692,47.306 297.078 C 47.732 303.181,52.536 308.552,58.676 309.790 C 60.933 310.245,340.193 309.974,341.920 309.515 C 348.693 307.716,352.380 303.552,352.404 297.674 C 352.422 293.139,352.334 292.937,344.351 279.308 C 343.698 278.193,342.981 276.959,342.757 276.565 C 342.080 275.372,339.768 271.395,339.007 270.113 C 338.613 269.450,337.996 268.380,337.636 267.734 C 337.276 267.089,335.884 264.679,334.544 262.380 C 333.204 260.081,330.840 255.999,329.291 253.309 C 327.742 250.620,326.220 248.020,325.909 247.530 C 325.597 247.041,325.343 246.583,325.343 246.512 C 325.343 246.441,325.056 245.929,324.706 245.375 C 324.156 244.503,322.887 242.349,321.256 239.518 C 318.198 234.208,317.182 232.467,316.659 231.639 C 316.319 231.100,316.041 230.607,316.041 230.544 C 316.041 230.480,315.289 229.171,314.371 227.635 C 313.453 226.099,312.701 224.791,312.701 224.730 C 312.701 224.669,312.272 223.939,311.747 223.109 C 311.222 222.278,310.793 221.556,310.793 221.504 C 310.793 221.453,310.042 220.156,309.123 218.621 C 308.205 217.087,307.454 215.756,307.454 215.664 C 307.454 215.571,307.202 215.122,306.894 214.665 C 306.586 214.208,306.063 213.351,305.731 212.761 C 304.420 210.430,303.457 208.780,302.846 207.816 C 302.494 207.261,302.206 206.755,302.206 206.692 C 302.206 206.573,299.885 202.577,298.005 199.457 C 297.430 198.502,296.959 197.680,296.959 197.631 C 296.959 197.581,296.299 196.430,295.492 195.073 C 294.685 193.716,293.788 192.177,293.499 191.652 C 293.210 191.127,292.119 189.242,291.074 187.464 C 290.029 185.685,289.100 184.075,289.009 183.886 C 288.919 183.697,288.638 183.201,288.384 182.783 C 287.752 181.743,283.731 174.843,283.102 173.720 C 282.822 173.219,282.053 171.896,281.393 170.781 C 280.733 169.666,280.008 168.425,279.780 168.023 C 278.526 165.808,275.645 160.849,275.494 160.644 C 275.397 160.513,275.040 159.901,274.700 159.284 C 274.361 158.667,273.115 156.501,271.931 154.471 C 270.747 152.441,269.559 150.389,269.290 149.911 C 269.022 149.433,267.819 147.359,266.618 145.302 C 265.417 143.245,264.078 140.945,263.642 140.191 C 263.207 139.436,262.462 138.148,261.986 137.329 C 261.511 136.509,260.937 135.516,260.711 135.122 C 260.294 134.397,257.883 130.233,257.120 128.921 C 253.346 122.432,252.053 120.199,249.312 115.444 C 247.536 112.361,245.722 109.273,245.283 108.582 C 244.844 107.891,244.484 107.256,244.484 107.172 C 244.484 107.088,244.180 106.526,243.807 105.924 C 243.435 105.322,242.666 104.025,242.098 103.041 C 241.530 102.057,240.653 100.584,240.151 99.767 C 239.648 98.951,239.237 98.225,239.237 98.154 C 239.237 98.042,237.900 95.737,235.293 91.354 C 234.864 90.632,234.169 89.413,233.747 88.644 C 233.326 87.875,232.457 86.391,231.816 85.347 C 231.175 84.302,230.650 83.386,230.650 83.312 C 230.650 83.237,230.221 82.496,229.696 81.665 C 229.171 80.835,228.742 80.113,228.742 80.061 C 228.742 80.010,227.990 78.713,227.072 77.178 C 226.154 75.644,225.403 74.358,225.403 74.320 C 225.403 74.282,224.405 72.544,223.185 70.459 C 221.965 68.373,220.893 66.506,220.801 66.309 C 220.710 66.112,220.531 65.790,220.404 65.593 C 219.904 64.822,216.816 59.562,216.816 59.484 C 216.816 59.438,216.386 58.699,215.862 57.841 C 215.337 56.984,214.908 56.233,214.908 56.172 C 214.908 56.043,213.248 53.278,212.330 51.878 C 209.763 47.961,206.033 45.130,202.225 44.211 C 201.434 44.020,197.400 43.816,197.257 43.961 M201.292 44.632 C 204.355 45.152,207.950 47.262,210.033 49.762 C 211.629 51.677,211.937 52.192,225.930 76.327 C 233.345 89.117,244.862 108.974,251.522 120.453 C 273.642 158.577,291.040 188.569,302.442 208.229 C 308.642 218.921,315.244 230.298,317.114 233.512 C 339.183 271.461,350.134 290.470,350.779 291.950 C 354.182 299.755,350.551 306.544,341.682 308.958 L 339.773 309.477 200.716 309.549 C 52.568 309.626,59.374 309.678,56.297 308.426 C 49.796 305.781,46.096 298.069,48.505 292.187 C 48.800 291.466,51.892 285.939,55.376 279.905 C 61.627 269.077,75.412 245.153,132.138 146.691 C 148.047 119.076,162.860 93.369,165.056 89.565 C 167.253 85.760,172.941 75.886,177.698 67.621 C 182.454 59.356,186.811 51.936,187.380 51.132 C 190.855 46.222,196.133 43.755,201.292 44.632 M263.187 148.033 C 263.269 148.246,281.468 179.677,303.630 217.878 C 325.792 256.079,344.298 288.078,344.755 288.986 C 349.754 298.922,345.511 305.278,333.214 306.279 C 327.519 306.742,64.129 306.451,62.254 305.980 C 53.104 303.679,50.248 297.726,54.378 289.560 C 54.876 288.574,64.003 272.637,74.659 254.145 C 94.309 220.047,94.661 219.422,93.800 220.274 C 93.198 220.869,54.596 287.864,53.520 290.181 C 49.432 298.983,54.036 305.672,64.922 306.748 C 69.565 307.207,334.379 306.913,336.553 306.446 C 346.913 304.225,349.892 297.839,344.998 288.340 C 343.502 285.437,263.434 147.646,263.242 147.646 C 263.130 147.645,263.105 147.819,263.187 148.033 M230.658 156.290 C 230.654 156.388,245.627 183.048,263.933 215.534 C 282.239 248.019,297.167 274.647,297.108 274.707 C 297.048 274.766,252.992 274.726,199.206 274.617 L 101.411 274.419 126.794 230.425 C 150.181 189.889,152.798 185.281,151.849 186.294 C 151.585 186.575,100.960 274.183,100.700 274.809 C 100.659 274.908,123.735 274.994,151.982 275.000 C 180.228 275.005,224.618 275.082,250.626 275.170 C 276.634 275.258,297.913 275.245,297.913 275.141 C 297.913 274.495,230.685 155.692,230.658 156.290 M217.293 163.357 C 210.150 165.652,207.961 174.840,213.288 180.163 C 218.966 185.838,228.708 182.860,230.372 174.942 C 231.923 167.557,224.549 161.025,217.293 163.357 M193.321 168.866 C 183.328 172.561,164.159 180.426,163.443 181.125 C 163.277 181.288,162.811 182.971,162.409 184.866 C 162.007 186.762,161.635 188.451,161.582 188.621 C 161.517 188.828,161.069 188.615,160.219 187.973 C 157.973 186.277,156.197 185.842,155.277 186.762 C 154.279 187.760,155.323 189.749,158.472 192.844 C 160.338 194.679,163.171 198.484,163.140 199.113 C 163.135 199.207,162.419 199.767,161.548 200.358 C 160.676 200.948,159.634 201.843,159.230 202.348 L 158.497 203.264 158.378 219.640 L 158.259 236.017 155.590 246.035 C 151.535 261.258,151.626 260.866,151.764 262.385 C 152.288 268.167,161.235 269.996,164.205 264.928 C 164.529 264.374,165.224 262.312,165.749 260.345 C 166.273 258.378,168.113 251.455,169.836 244.961 L 172.969 233.154 172.803 224.925 C 172.694 219.538,172.717 216.779,172.871 216.935 C 173.692 217.771,186.285 233.353,186.285 233.533 C 186.285 233.655,183.509 239.523,180.116 246.573 C 173.321 260.690,173.403 260.500,173.410 262.230 C 173.433 267.538,181.371 270.384,184.987 266.381 C 186.226 265.010,198.517 240.194,200.846 234.362 C 201.951 231.595,201.723 230.345,199.389 226.357 C 198.872 225.474,198.768 225.169,199.072 225.424 C 199.320 225.632,205.559 230.662,212.937 236.601 L 226.351 247.400 224.694 248.194 C 222.692 249.153,221.048 250.617,220.115 252.271 C 219.527 253.313,219.288 253.523,218.536 253.661 C 215.541 254.213,213.082 256.519,212.185 259.617 L 211.906 260.584 210.246 260.766 C 205.663 261.269,202.540 263.124,200.412 266.607 L 199.647 267.859 238.865 267.859 L 278.082 267.859 277.886 267.173 C 276.819 263.454,272.808 260.465,268.884 260.465 C 268.187 260.465,268.043 260.344,267.586 259.371 C 267.011 258.148,265.907 257.306,264.341 256.896 L 263.327 256.630 263.327 255.013 C 263.327 249.880,260.471 247.108,255.179 247.108 L 253.571 247.108 252.819 246.016 C 247.656 238.511,238.838 237.295,232.544 243.221 L 230.972 244.702 215.557 232.176 L 200.141 219.651 201.120 218.054 C 209.401 204.546,215.340 192.439,215.101 189.555 C 214.811 186.065,207.290 174.821,201.394 169.062 C 198.977 166.702,199.160 166.707,193.321 168.866 M180.547 181.450 C 178.324 183.889,173.966 188.432,173.850 188.432 C 173.782 188.432,174.118 186.634,174.596 184.436 L 175.465 180.441 178.430 180.322 C 180.061 180.256,181.438 180.227,181.490 180.257 C 181.542 180.288,181.118 180.824,180.547 181.450 M193.718 205.188 C 192.801 206.926,191.576 209.234,190.997 210.316 L 189.945 212.284 186.982 209.744 C 185.352 208.347,184.019 207.105,184.019 206.984 C 184.019 206.787,194.700 202.055,195.189 202.036 C 195.298 202.031,194.636 203.450,193.718 205.188 " stroke="none" fill="#0f0e0e" fill-rule="evenodd"></path><path id="path2" d="M192.188 45.217 C 191.297 45.701,191.351 45.902,192.248 45.438 C 192.642 45.235,192.964 45.017,192.964 44.955 C 192.964 44.802,192.938 44.810,192.188 45.217 M196.197 46.137 C 193.101 47.441,190.610 49.763,187.865 53.906 C 186.544 55.898,165.719 91.991,121.048 169.708 C 105.679 196.447,106.468 195.061,106.786 194.753 C 106.921 194.621,107.814 193.172,108.770 191.532 C 109.726 189.893,110.822 188.013,111.205 187.355 C 111.589 186.697,112.286 185.908,112.754 185.601 L 113.606 185.042 113.123 185.842 C 112.857 186.283,111.754 188.199,110.671 190.101 C 109.589 192.004,108.657 193.640,108.601 193.739 C 108.545 193.837,108.549 193.918,108.609 193.918 C 108.743 193.918,114.490 184.028,114.490 183.797 C 114.490 183.707,114.366 183.710,114.215 183.803 C 114.043 183.910,114.004 183.869,114.112 183.694 C 114.207 183.541,114.371 183.468,114.477 183.534 C 114.582 183.599,116.635 180.247,119.038 176.084 C 126.440 163.263,150.902 120.989,158.198 108.408 C 162.003 101.849,165.225 96.374,165.360 96.243 C 165.679 95.931,166.007 95.340,160.996 104.114 C 154.607 115.303,105.470 200.808,97.292 214.967 C 95.872 217.427,94.759 219.439,94.820 219.439 C 94.880 219.439,95.660 218.918,96.553 218.281 C 109.136 209.302,128.056 198.159,145.170 189.647 L 151.598 186.450 154.371 181.657 C 155.896 179.020,166.821 160.119,178.648 139.654 C 190.476 119.189,200.228 102.368,200.318 102.275 C 200.409 102.181,207.345 114.256,215.731 129.108 C 224.118 143.960,231.005 156.149,231.035 156.193 C 231.066 156.238,233.541 155.574,236.535 154.718 C 244.372 152.478,250.226 150.892,256.887 149.205 C 260.101 148.392,262.731 147.675,262.731 147.613 C 262.731 147.551,260.591 143.803,257.976 139.284 C 224.409 81.288,217.881 69.933,218.424 70.483 C 218.680 70.742,222.237 76.794,237.316 102.620 C 243.010 112.372,247.271 119.427,247.413 119.339 C 247.557 119.250,247.586 119.304,247.484 119.469 C 247.330 119.718,251.026 126.416,251.318 126.416 C 251.379 126.416,251.384 126.336,251.329 126.237 C 251.273 126.139,250.554 124.878,249.732 123.435 C 248.909 121.992,248.207 120.757,248.172 120.692 C 248.136 120.626,248.357 120.572,248.663 120.572 C 249.117 120.572,249.510 121.063,250.815 123.256 C 251.693 124.732,252.463 125.939,252.525 125.939 C 252.588 125.939,252.375 125.483,252.052 124.925 C 251.728 124.368,250.954 123.028,250.330 121.948 C 249.706 120.868,249.109 120.038,249.003 120.104 C 248.897 120.169,248.733 120.097,248.638 119.943 C 248.522 119.756,248.569 119.728,248.781 119.859 C 249.407 120.246,213.609 58.105,210.652 53.671 C 206.260 47.086,200.756 44.218,196.197 46.137 M189.820 47.010 L 188.551 48.223 189.922 47.083 C 190.677 46.457,191.294 45.910,191.294 45.870 C 191.294 45.658,190.974 45.905,189.820 47.010 M209.779 48.181 C 210.292 48.706,210.765 49.135,210.830 49.135 C 210.896 49.135,210.530 48.706,210.018 48.181 C 209.505 47.657,209.033 47.227,208.967 47.227 C 208.901 47.227,209.267 47.657,209.779 48.181 M187.582 49.195 L 186.881 49.970 187.657 49.270 C 188.083 48.884,188.432 48.535,188.432 48.494 C 188.432 48.310,188.235 48.472,187.582 49.195 M186.099 51.103 C 185.228 52.389,185.040 52.713,185.164 52.713 C 185.219 52.713,185.655 52.123,186.134 51.401 C 186.614 50.680,186.956 50.089,186.895 50.089 C 186.835 50.089,186.476 50.546,186.099 51.103 M184.496 53.667 C 184.293 54.061,184.180 54.383,184.245 54.383 C 184.311 54.383,184.531 54.061,184.735 53.667 C 184.938 53.274,185.051 52.952,184.985 52.952 C 184.920 52.952,184.700 53.274,184.496 53.667 M214.073 54.144 C 214.276 54.538,214.496 54.860,214.562 54.860 C 214.628 54.860,214.515 54.538,214.311 54.144 C 214.108 53.751,213.888 53.429,213.822 53.429 C 213.756 53.429,213.869 53.751,214.073 54.144 M215.027 55.814 C 215.230 56.208,215.451 56.530,215.516 56.530 C 215.582 56.530,215.469 56.208,215.265 55.814 C 215.062 55.420,214.842 55.098,214.776 55.098 C 214.710 55.098,214.823 55.420,215.027 55.814 M182.588 57.007 C 182.384 57.400,182.272 57.722,182.337 57.722 C 182.403 57.722,182.623 57.400,182.826 57.007 C 183.030 56.613,183.143 56.291,183.077 56.291 C 183.012 56.291,182.791 56.613,182.588 57.007 M217.412 59.869 C 217.616 60.262,217.836 60.584,217.901 60.584 C 217.967 60.584,217.854 60.262,217.651 59.869 C 217.447 59.475,217.227 59.153,217.161 59.153 C 217.096 59.153,217.209 59.475,217.412 59.869 M218.366 61.538 C 218.570 61.932,218.790 62.254,218.855 62.254 C 218.921 62.254,218.808 61.932,218.605 61.538 C 218.401 61.145,218.181 60.823,218.115 60.823 C 218.050 60.823,218.163 61.145,218.366 61.538 M179.249 62.731 C 179.045 63.125,178.932 63.447,178.998 63.447 C 179.063 63.447,179.284 63.125,179.487 62.731 C 179.691 62.338,179.804 62.016,179.738 62.016 C 179.672 62.016,179.452 62.338,179.249 62.731 M219.320 63.208 C 219.524 63.602,219.744 63.924,219.810 63.924 C 219.875 63.924,219.762 63.602,219.559 63.208 C 219.355 62.815,219.135 62.493,219.069 62.493 C 219.004 62.493,219.117 62.815,219.320 63.208 M178.295 64.401 C 178.091 64.794,177.978 65.116,178.044 65.116 C 178.109 65.116,178.330 64.794,178.533 64.401 C 178.737 64.007,178.849 63.685,178.784 63.685 C 178.718 63.685,178.498 64.007,178.295 64.401 M177.340 66.070 C 177.137 66.464,177.024 66.786,177.090 66.786 C 177.155 66.786,177.375 66.464,177.579 66.070 C 177.783 65.677,177.895 65.355,177.830 65.355 C 177.764 65.355,177.544 65.677,177.340 66.070 M221.085 66.190 C 221.487 66.968,221.817 67.399,221.816 67.144 C 221.815 67.013,221.595 66.637,221.326 66.309 C 221.002 65.913,220.921 65.873,221.085 66.190 M176.386 67.740 C 176.183 68.134,176.070 68.456,176.136 68.456 C 176.201 68.456,176.421 68.134,176.625 67.740 C 176.828 67.346,176.941 67.024,176.876 67.024 C 176.810 67.024,176.590 67.346,176.386 67.740 M222.660 68.933 C 222.863 69.326,223.083 69.648,223.149 69.648 C 223.214 69.648,223.102 69.326,222.898 68.933 C 222.695 68.539,222.474 68.217,222.409 68.217 C 222.343 68.217,222.456 68.539,222.660 68.933 M223.614 70.602 C 223.817 70.996,224.037 71.318,224.103 71.318 C 224.168 71.318,224.056 70.996,223.852 70.602 C 223.649 70.209,223.428 69.887,223.363 69.887 C 223.297 69.887,223.410 70.209,223.614 70.602 M226.953 76.327 C 227.156 76.720,227.377 77.042,227.442 77.042 C 227.508 77.042,227.395 76.720,227.191 76.327 C 226.988 75.933,226.768 75.611,226.702 75.611 C 226.637 75.611,226.749 75.933,226.953 76.327 M171.139 76.804 C 170.935 77.197,170.823 77.519,170.888 77.519 C 170.954 77.519,171.174 77.197,171.377 76.804 C 171.581 76.410,171.694 76.088,171.628 76.088 C 171.563 76.088,171.342 76.410,171.139 76.804 M227.907 77.996 C 228.110 78.390,228.331 78.712,228.396 78.712 C 228.462 78.712,228.349 78.390,228.145 77.996 C 227.942 77.603,227.722 77.281,227.656 77.281 C 227.591 77.281,227.703 77.603,227.907 77.996 M170.185 78.473 C 169.981 78.867,169.868 79.189,169.934 79.189 C 170.000 79.189,170.220 78.867,170.423 78.473 C 170.627 78.080,170.740 77.758,170.674 77.758 C 170.609 77.758,170.388 78.080,170.185 78.473 M228.861 79.666 C 229.065 80.060,229.285 80.382,229.350 80.382 C 229.416 80.382,229.303 80.060,229.100 79.666 C 228.896 79.273,228.676 78.951,228.610 78.951 C 228.545 78.951,228.658 79.273,228.861 79.666 M169.231 80.143 C 169.027 80.537,168.914 80.859,168.980 80.859 C 169.046 80.859,169.266 80.537,169.469 80.143 C 169.673 79.750,169.786 79.428,169.720 79.428 C 169.654 79.428,169.434 79.750,169.231 80.143 M168.277 81.813 C 168.073 82.206,167.960 82.528,168.026 82.528 C 168.092 82.528,168.312 82.206,168.515 81.813 C 168.719 81.419,168.832 81.097,168.766 81.097 C 168.700 81.097,168.480 81.419,168.277 81.813 M167.323 83.482 C 167.119 83.876,167.006 84.198,167.072 84.198 C 167.137 84.198,167.358 83.876,167.561 83.482 C 167.765 83.089,167.877 82.767,167.812 82.767 C 167.746 82.767,167.526 83.089,167.323 83.482 M231.246 83.721 C 231.450 84.114,231.670 84.436,231.736 84.436 C 231.801 84.436,231.688 84.114,231.485 83.721 C 231.281 83.327,231.061 83.005,230.996 83.005 C 230.930 83.005,231.043 83.327,231.246 83.721 M232.200 85.391 C 232.404 85.784,232.624 86.106,232.690 86.106 C 232.755 86.106,232.642 85.784,232.439 85.391 C 232.235 84.997,232.015 84.675,231.950 84.675 C 231.884 84.675,231.997 84.997,232.200 85.391 M233.154 87.060 C 233.358 87.454,233.578 87.776,233.644 87.776 C 233.709 87.776,233.596 87.454,233.393 87.060 C 233.189 86.667,232.969 86.345,232.904 86.345 C 232.838 86.345,232.951 86.667,233.154 87.060 M234.109 88.730 C 234.312 89.123,234.532 89.445,234.598 89.445 C 234.663 89.445,234.551 89.123,234.347 88.730 C 234.144 88.336,233.923 88.014,233.858 88.014 C 233.792 88.014,233.905 88.336,234.109 88.730 M163.029 90.877 C 162.826 91.270,162.713 91.592,162.778 91.592 C 162.844 91.592,163.064 91.270,163.268 90.877 C 163.471 90.483,163.584 90.161,163.519 90.161 C 163.453 90.161,163.233 90.483,163.029 90.877 M235.540 91.115 C 235.743 91.509,235.963 91.831,236.029 91.831 C 236.095 91.831,235.982 91.509,235.778 91.115 C 235.575 90.722,235.354 90.400,235.289 90.400 C 235.223 90.400,235.336 90.722,235.540 91.115 M162.075 92.546 C 161.872 92.940,161.759 93.262,161.824 93.262 C 161.890 93.262,162.110 92.940,162.314 92.546 C 162.517 92.153,162.630 91.831,162.564 91.831 C 162.499 91.831,162.279 92.153,162.075 92.546 M236.494 92.785 C 236.697 93.178,236.917 93.500,236.983 93.500 C 237.049 93.500,236.936 93.178,236.732 92.785 C 236.529 92.391,236.309 92.069,236.243 92.069 C 236.177 92.069,236.290 92.391,236.494 92.785 M167.084 93.500 C 166.881 93.894,166.660 94.216,166.595 94.216 C 166.529 94.216,166.642 93.894,166.846 93.500 C 167.049 93.107,167.269 92.785,167.335 92.785 C 167.400 92.785,167.288 93.107,167.084 93.500 M161.121 94.216 C 160.918 94.609,160.805 94.931,160.870 94.931 C 160.936 94.931,161.156 94.609,161.360 94.216 C 161.563 93.822,161.676 93.500,161.610 93.500 C 161.545 93.500,161.325 93.822,161.121 94.216 M237.448 94.454 C 237.651 94.848,237.872 95.170,237.937 95.170 C 238.003 95.170,237.890 94.848,237.686 94.454 C 237.483 94.061,237.263 93.739,237.197 93.739 C 237.131 93.739,237.244 94.061,237.448 94.454 M166.130 95.170 C 165.926 95.564,165.706 95.886,165.641 95.886 C 165.575 95.886,165.688 95.564,165.891 95.170 C 166.095 94.776,166.315 94.454,166.381 94.454 C 166.446 94.454,166.334 94.776,166.130 95.170 M160.162 95.945 C 159.895 96.496,159.883 96.601,160.119 96.307 C 160.303 96.079,160.500 95.940,160.557 95.997 C 160.614 96.054,160.661 95.892,160.661 95.636 C 160.661 95.004,160.598 95.043,160.162 95.945 M158.259 99.225 C 158.055 99.618,157.942 99.940,158.008 99.940 C 158.074 99.940,158.294 99.618,158.497 99.225 C 158.701 98.831,158.814 98.509,158.748 98.509 C 158.682 98.509,158.462 98.831,158.259 99.225 M240.787 100.179 C 240.991 100.572,241.211 100.894,241.276 100.894 C 241.342 100.894,241.229 100.572,241.026 100.179 C 240.822 99.785,240.602 99.463,240.536 99.463 C 240.471 99.463,240.584 99.785,240.787 100.179 M241.741 101.849 C 241.945 102.242,242.165 102.564,242.230 102.564 C 242.296 102.564,242.183 102.242,241.980 101.849 C 241.776 101.455,241.556 101.133,241.490 101.133 C 241.425 101.133,241.538 101.455,241.741 101.849 M242.695 103.518 C 242.899 103.912,243.119 104.234,243.185 104.234 C 243.250 104.234,243.137 103.912,242.934 103.518 C 242.730 103.125,242.510 102.803,242.445 102.803 C 242.379 102.803,242.492 103.125,242.695 103.518 M154.919 104.949 C 154.716 105.343,154.603 105.665,154.669 105.665 C 154.734 105.665,154.955 105.343,155.158 104.949 C 155.362 104.556,155.474 104.234,155.409 104.234 C 155.343 104.234,155.123 104.556,154.919 104.949 M153.965 106.619 C 153.762 107.013,153.649 107.335,153.715 107.335 C 153.780 107.335,154.000 107.013,154.204 106.619 C 154.407 106.225,154.520 105.903,154.455 105.903 C 154.389 105.903,154.169 106.225,153.965 106.619 M245.081 107.573 C 245.284 107.967,245.504 108.289,245.570 108.289 C 245.635 108.289,245.523 107.967,245.319 107.573 C 245.116 107.179,244.895 106.857,244.830 106.857 C 244.764 106.857,244.877 107.179,245.081 107.573 M153.011 108.289 C 152.808 108.682,152.695 109.004,152.761 109.004 C 152.826 109.004,153.046 108.682,153.250 108.289 C 153.453 107.895,153.566 107.573,153.501 107.573 C 153.435 107.573,153.215 107.895,153.011 108.289 M246.035 109.243 C 246.238 109.636,246.458 109.958,246.524 109.958 C 246.589 109.958,246.477 109.636,246.273 109.243 C 246.070 108.849,245.849 108.527,245.784 108.527 C 245.718 108.527,245.831 108.849,246.035 109.243 M152.057 109.958 C 151.854 110.352,151.741 110.674,151.806 110.674 C 151.872 110.674,152.092 110.352,152.296 109.958 C 152.499 109.565,152.612 109.243,152.547 109.243 C 152.481 109.243,152.261 109.565,152.057 109.958 M151.103 111.628 C 150.900 112.021,150.787 112.343,150.852 112.343 C 150.918 112.343,151.138 112.021,151.342 111.628 C 151.545 111.234,151.658 110.912,151.592 110.912 C 151.527 110.912,151.307 111.234,151.103 111.628 M249.374 114.967 C 249.577 115.361,249.798 115.683,249.863 115.683 C 249.929 115.683,249.816 115.361,249.612 114.967 C 249.409 114.574,249.189 114.252,249.123 114.252 C 249.058 114.252,249.170 114.574,249.374 114.967 M250.328 116.637 C 250.531 117.030,250.752 117.352,250.817 117.352 C 250.883 117.352,250.770 117.030,250.566 116.637 C 250.363 116.243,250.143 115.921,250.077 115.921 C 250.012 115.921,250.124 116.243,250.328 116.637 M251.282 118.306 C 251.486 118.700,251.706 119.022,251.771 119.022 C 251.837 119.022,251.724 118.700,251.521 118.306 C 251.317 117.913,251.097 117.591,251.031 117.591 C 250.966 117.591,251.079 117.913,251.282 118.306 M145.856 120.692 C 145.652 121.085,145.539 121.407,145.605 121.407 C 145.671 121.407,145.891 121.085,146.094 120.692 C 146.298 120.298,146.411 119.976,146.345 119.976 C 146.279 119.976,146.059 120.298,145.856 120.692 M144.902 122.361 C 144.698 122.755,144.585 123.077,144.651 123.077 C 144.716 123.077,144.937 122.755,145.140 122.361 C 145.344 121.968,145.456 121.646,145.391 121.646 C 145.325 121.646,145.105 121.968,144.902 122.361 M143.948 124.031 C 143.744 124.425,143.631 124.747,143.697 124.747 C 143.762 124.747,143.983 124.425,144.186 124.031 C 144.390 123.637,144.502 123.315,144.437 123.315 C 144.371 123.315,144.151 123.637,143.948 124.031 M254.621 124.031 C 254.825 124.425,255.045 124.747,255.111 124.747 C 255.176 124.747,255.063 124.425,254.860 124.031 C 254.656 123.637,254.436 123.315,254.371 123.315 C 254.305 123.315,254.418 123.637,254.621 124.031 M142.993 125.701 C 142.790 126.094,142.677 126.416,142.743 126.416 C 142.808 126.416,143.028 126.094,143.232 125.701 C 143.435 125.307,143.548 124.985,143.483 124.985 C 143.417 124.985,143.197 125.307,142.993 125.701 M255.575 125.701 C 255.779 126.094,255.999 126.416,256.065 126.416 C 256.130 126.416,256.017 126.094,255.814 125.701 C 255.610 125.307,255.390 124.985,255.325 124.985 C 255.259 124.985,255.372 125.307,255.575 125.701 M252.952 126.893 C 253.155 127.287,253.375 127.609,253.441 127.609 C 253.507 127.609,253.394 127.287,253.190 126.893 C 252.987 126.500,252.767 126.178,252.701 126.178 C 252.635 126.178,252.748 126.500,252.952 126.893 M142.039 127.370 C 141.836 127.764,141.723 128.086,141.789 128.086 C 141.854 128.086,142.074 127.764,142.278 127.370 C 142.481 126.977,142.594 126.655,142.529 126.655 C 142.463 126.655,142.243 126.977,142.039 127.370 M251.759 127.370 C 251.963 127.764,252.183 128.086,252.248 128.086 C 252.314 128.086,252.201 127.764,251.998 127.370 C 251.794 126.977,251.574 126.655,251.508 126.655 C 251.443 126.655,251.556 126.977,251.759 127.370 M256.530 127.370 C 256.733 127.764,256.953 128.086,257.019 128.086 C 257.084 128.086,256.972 127.764,256.768 127.370 C 256.565 126.977,256.344 126.655,256.279 126.655 C 256.213 126.655,256.326 126.977,256.530 127.370 M257.621 129.159 C 257.915 129.684,258.259 130.221,258.384 130.352 C 258.741 130.726,257.924 129.215,257.481 128.682 C 257.263 128.420,257.326 128.634,257.621 129.159 M254.621 129.756 C 254.825 130.149,255.045 130.471,255.111 130.471 C 255.176 130.471,255.063 130.149,254.860 129.756 C 254.656 129.362,254.436 129.040,254.371 129.040 C 254.305 129.040,254.418 129.362,254.621 129.756 M258.915 131.425 C 259.118 131.819,259.338 132.141,259.404 132.141 C 259.470 132.141,259.357 131.819,259.153 131.425 C 258.950 131.032,258.730 130.710,258.664 130.710 C 258.598 130.710,258.711 131.032,258.915 131.425 M138.700 133.095 C 138.497 133.488,138.384 133.810,138.449 133.810 C 138.515 133.810,138.735 133.488,138.939 133.095 C 139.142 132.701,139.255 132.379,139.189 132.379 C 139.124 132.379,138.904 132.701,138.700 133.095 M259.869 133.095 C 260.072 133.488,260.293 133.810,260.358 133.810 C 260.424 133.810,260.311 133.488,260.107 133.095 C 259.904 132.701,259.684 132.379,259.618 132.379 C 259.552 132.379,259.665 132.701,259.869 133.095 M137.746 134.764 C 137.542 135.158,137.430 135.480,137.495 135.480 C 137.561 135.480,137.781 135.158,137.984 134.764 C 138.188 134.371,138.301 134.049,138.235 134.049 C 138.170 134.049,137.949 134.371,137.746 134.764 M136.792 136.434 C 136.588 136.828,136.476 137.150,136.541 137.150 C 136.607 137.150,136.827 136.828,137.030 136.434 C 137.234 136.041,137.347 135.719,137.281 135.719 C 137.216 135.719,136.995 136.041,136.792 136.434 M135.838 138.104 C 135.634 138.497,135.521 138.819,135.587 138.819 C 135.653 138.819,135.873 138.497,136.076 138.104 C 136.280 137.710,136.393 137.388,136.327 137.388 C 136.262 137.388,136.041 137.710,135.838 138.104 M263.208 138.819 C 263.412 139.213,263.632 139.535,263.697 139.535 C 263.763 139.535,263.650 139.213,263.447 138.819 C 263.243 138.426,263.023 138.104,262.957 138.104 C 262.892 138.104,263.005 138.426,263.208 138.819 M134.884 139.773 C 134.680 140.167,134.567 140.489,134.633 140.489 C 134.699 140.489,134.919 140.167,135.122 139.773 C 135.326 139.380,135.439 139.058,135.373 139.058 C 135.307 139.058,135.087 139.380,134.884 139.773 M264.162 140.489 C 264.366 140.883,264.586 141.205,264.651 141.205 C 264.717 141.205,264.604 140.883,264.401 140.489 C 264.197 140.095,263.977 139.773,263.911 139.773 C 263.846 139.773,263.959 140.095,264.162 140.489 M265.116 142.159 C 265.320 142.552,265.540 142.874,265.606 142.874 C 265.671 142.874,265.558 142.552,265.355 142.159 C 265.151 141.765,264.931 141.443,264.866 141.443 C 264.800 141.443,264.913 141.765,265.116 142.159 M268.456 147.883 C 268.659 148.277,268.879 148.599,268.945 148.599 C 269.010 148.599,268.898 148.277,268.694 147.883 C 268.491 147.490,268.270 147.168,268.205 147.168 C 268.139 147.168,268.252 147.490,268.456 147.883 M129.636 148.837 C 129.433 149.231,129.320 149.553,129.385 149.553 C 129.451 149.553,129.671 149.231,129.875 148.837 C 130.078 148.444,130.191 148.122,130.126 148.122 C 130.060 148.122,129.840 148.444,129.636 148.837 M269.410 149.553 C 269.613 149.946,269.833 150.268,269.899 150.268 C 269.965 150.268,269.852 149.946,269.648 149.553 C 269.445 149.159,269.224 148.837,269.159 148.837 C 269.093 148.837,269.206 149.159,269.410 149.553 M128.682 150.507 C 128.479 150.900,128.366 151.222,128.431 151.222 C 128.497 151.222,128.717 150.900,128.921 150.507 C 129.124 150.113,129.237 149.791,129.171 149.791 C 129.106 149.791,128.886 150.113,128.682 150.507 M270.364 151.222 C 270.567 151.616,270.787 151.938,270.853 151.938 C 270.919 151.938,270.806 151.616,270.602 151.222 C 270.399 150.829,270.179 150.507,270.113 150.507 C 270.047 150.507,270.160 150.829,270.364 151.222 M127.728 152.177 C 127.525 152.570,127.412 152.892,127.477 152.892 C 127.543 152.892,127.763 152.570,127.967 152.177 C 128.170 151.783,128.283 151.461,128.217 151.461 C 128.152 151.461,127.932 151.783,127.728 152.177 M271.795 153.608 C 271.998 154.001,272.219 154.323,272.284 154.323 C 272.350 154.323,272.237 154.001,272.033 153.608 C 271.830 153.214,271.610 152.892,271.544 152.892 C 271.479 152.892,271.591 153.214,271.795 153.608 M126.774 153.846 C 126.570 154.240,126.458 154.562,126.523 154.562 C 126.589 154.562,126.809 154.240,127.013 153.846 C 127.216 153.453,127.329 153.131,127.263 153.131 C 127.198 153.131,126.978 153.453,126.774 153.846 M272.749 155.277 C 272.952 155.671,273.173 155.993,273.238 155.993 C 273.304 155.993,273.191 155.671,272.987 155.277 C 272.784 154.884,272.564 154.562,272.498 154.562 C 272.433 154.562,272.545 154.884,272.749 155.277 M125.820 155.516 C 125.616 155.909,125.504 156.231,125.569 156.231 C 125.635 156.231,125.855 155.909,126.058 155.516 C 126.262 155.122,126.375 154.800,126.309 154.800 C 126.244 154.800,126.023 155.122,125.820 155.516 M273.703 156.947 C 273.907 157.340,274.127 157.662,274.192 157.662 C 274.258 157.662,274.145 157.340,273.942 156.947 C 273.738 156.553,273.518 156.231,273.452 156.231 C 273.387 156.231,273.500 156.553,273.703 156.947 M122.481 161.240 C 122.277 161.634,122.164 161.956,122.230 161.956 C 122.295 161.956,122.516 161.634,122.719 161.240 C 122.923 160.847,123.036 160.525,122.970 160.525 C 122.904 160.525,122.684 160.847,122.481 161.240 M277.042 162.671 C 277.246 163.065,277.466 163.387,277.532 163.387 C 277.597 163.387,277.484 163.065,277.281 162.671 C 277.077 162.278,276.857 161.956,276.792 161.956 C 276.726 161.956,276.839 162.278,277.042 162.671 M121.527 162.910 C 121.323 163.304,121.210 163.626,121.276 163.626 C 121.341 163.626,121.562 163.304,121.765 162.910 C 121.969 162.516,122.081 162.194,122.016 162.194 C 121.950 162.194,121.730 162.516,121.527 162.910 M277.996 164.341 C 278.200 164.735,278.420 165.057,278.486 165.057 C 278.551 165.057,278.438 164.735,278.235 164.341 C 278.031 163.948,277.811 163.626,277.746 163.626 C 277.680 163.626,277.793 163.948,277.996 164.341 M120.572 164.580 C 120.369 164.973,120.256 165.295,120.322 165.295 C 120.387 165.295,120.607 164.973,120.811 164.580 C 121.014 164.186,121.127 163.864,121.062 163.864 C 120.996 163.864,120.776 164.186,120.572 164.580 M278.951 166.011 C 279.154 166.404,279.374 166.726,279.440 166.726 C 279.505 166.726,279.393 166.404,279.189 166.011 C 278.986 165.617,278.765 165.295,278.700 165.295 C 278.634 165.295,278.747 165.617,278.951 166.011 M119.618 166.249 C 119.415 166.643,119.302 166.965,119.368 166.965 C 119.433 166.965,119.653 166.643,119.857 166.249 C 120.060 165.856,120.173 165.534,120.108 165.534 C 120.042 165.534,119.822 165.856,119.618 166.249 M118.664 167.919 C 118.461 168.312,118.348 168.634,118.414 168.634 C 118.479 168.634,118.699 168.312,118.903 167.919 C 119.106 167.525,119.219 167.203,119.154 167.203 C 119.088 167.203,118.868 167.525,118.664 167.919 M281.336 170.066 C 281.539 170.459,281.759 170.781,281.825 170.781 C 281.891 170.781,281.778 170.459,281.574 170.066 C 281.371 169.672,281.151 169.350,281.085 169.350 C 281.019 169.350,281.132 169.672,281.336 170.066 M116.756 171.258 C 116.553 171.652,116.440 171.974,116.505 171.974 C 116.571 171.974,116.791 171.652,116.995 171.258 C 117.198 170.865,117.311 170.543,117.245 170.543 C 117.180 170.543,116.960 170.865,116.756 171.258 M282.290 171.735 C 282.493 172.129,282.714 172.451,282.779 172.451 C 282.845 172.451,282.732 172.129,282.528 171.735 C 282.325 171.342,282.105 171.020,282.039 171.020 C 281.973 171.020,282.086 171.342,282.290 171.735 M283.244 173.405 C 283.447 173.798,283.668 174.120,283.733 174.120 C 283.799 174.120,283.686 173.798,283.482 173.405 C 283.279 173.011,283.059 172.689,282.993 172.689 C 282.928 172.689,283.040 173.011,283.244 173.405 M284.198 175.075 C 284.401 175.468,284.622 175.790,284.687 175.790 C 284.753 175.790,284.640 175.468,284.436 175.075 C 284.233 174.681,284.013 174.359,283.947 174.359 C 283.882 174.359,283.994 174.681,284.198 175.075 M113.417 176.983 C 113.213 177.376,113.100 177.698,113.166 177.698 C 113.232 177.698,113.452 177.376,113.655 176.983 C 113.859 176.589,113.972 176.267,113.906 176.267 C 113.841 176.267,113.620 176.589,113.417 176.983 M285.629 177.460 C 285.833 177.853,286.053 178.175,286.118 178.175 C 286.184 178.175,286.071 177.853,285.868 177.460 C 285.664 177.066,285.444 176.744,285.378 176.744 C 285.313 176.744,285.426 177.066,285.629 177.460 M112.463 178.652 C 112.259 179.046,112.146 179.368,112.212 179.368 C 112.278 179.368,112.498 179.046,112.701 178.652 C 112.905 178.259,113.018 177.937,112.952 177.937 C 112.886 177.937,112.666 178.259,112.463 178.652 M286.583 179.129 C 286.787 179.523,287.007 179.845,287.072 179.845 C 287.138 179.845,287.025 179.523,286.822 179.129 C 286.618 178.736,286.398 178.414,286.332 178.414 C 286.267 178.414,286.380 178.736,286.583 179.129 M111.509 180.322 C 111.305 180.716,111.192 181.038,111.258 181.038 C 111.323 181.038,111.544 180.716,111.747 180.322 C 111.951 179.928,112.064 179.606,111.998 179.606 C 111.932 179.606,111.712 179.928,111.509 180.322 M287.537 180.799 C 287.741 181.193,287.961 181.515,288.027 181.515 C 288.092 181.515,287.979 181.193,287.776 180.799 C 287.572 180.405,287.352 180.083,287.286 180.083 C 287.221 180.083,287.334 180.405,287.537 180.799 M110.555 181.992 C 110.351 182.385,110.238 182.707,110.304 182.707 C 110.369 182.707,110.590 182.385,110.793 181.992 C 110.997 181.598,111.109 181.276,111.044 181.276 C 110.978 181.276,110.758 181.598,110.555 181.992 M290.877 186.524 C 291.080 186.917,291.300 187.239,291.366 187.239 C 291.431 187.239,291.319 186.917,291.115 186.524 C 290.912 186.130,290.691 185.808,290.626 185.808 C 290.560 185.808,290.673 186.130,290.877 186.524 M291.831 188.193 C 292.034 188.587,292.254 188.909,292.320 188.909 C 292.386 188.909,292.273 188.587,292.069 188.193 C 291.866 187.800,291.645 187.478,291.580 187.478 C 291.514 187.478,291.627 187.800,291.831 188.193 M292.785 189.863 C 292.988 190.256,293.208 190.578,293.274 190.578 C 293.340 190.578,293.227 190.256,293.023 189.863 C 292.820 189.469,292.600 189.147,292.534 189.147 C 292.468 189.147,292.581 189.469,292.785 189.863 M105.307 191.055 C 105.104 191.449,104.991 191.771,105.056 191.771 C 105.122 191.771,105.342 191.449,105.546 191.055 C 105.749 190.662,105.862 190.340,105.796 190.340 C 105.731 190.340,105.511 190.662,105.307 191.055 M104.353 192.725 C 104.149 193.119,104.037 193.441,104.102 193.441 C 104.168 193.441,104.388 193.119,104.592 192.725 C 104.795 192.332,104.908 192.010,104.842 192.010 C 104.777 192.010,104.557 192.332,104.353 192.725 M295.170 193.918 C 295.373 194.311,295.594 194.633,295.659 194.633 C 295.725 194.633,295.612 194.311,295.408 193.918 C 295.205 193.524,294.985 193.202,294.919 193.202 C 294.854 193.202,294.966 193.524,295.170 193.918 M103.399 194.395 C 103.195 194.788,103.083 195.110,103.148 195.110 C 103.214 195.110,103.434 194.788,103.637 194.395 C 103.841 194.001,103.954 193.679,103.888 193.679 C 103.823 193.679,103.602 194.001,103.399 194.395 M107.931 194.872 C 107.727 195.265,107.614 195.587,107.680 195.587 C 107.746 195.587,107.966 195.265,108.169 194.872 C 108.373 194.478,108.486 194.156,108.420 194.156 C 108.355 194.156,108.134 194.478,107.931 194.872 M296.124 195.587 C 296.328 195.981,296.548 196.303,296.613 196.303 C 296.679 196.303,296.566 195.981,296.363 195.587 C 296.159 195.194,295.939 194.872,295.873 194.872 C 295.808 194.872,295.921 195.194,296.124 195.587 M106.023 195.826 C 105.819 196.219,105.706 196.541,105.772 196.541 C 105.837 196.541,106.058 196.219,106.261 195.826 C 106.465 195.432,106.578 195.110,106.512 195.110 C 106.446 195.110,106.226 195.432,106.023 195.826 M102.445 196.064 C 102.241 196.458,102.128 196.780,102.194 196.780 C 102.260 196.780,102.480 196.458,102.683 196.064 C 102.887 195.671,103.000 195.349,102.934 195.349 C 102.869 195.349,102.648 195.671,102.445 196.064 M106.977 196.541 C 106.773 196.935,106.660 197.257,106.726 197.257 C 106.792 197.257,107.012 196.935,107.215 196.541 C 107.419 196.148,107.532 195.826,107.466 195.826 C 107.400 195.826,107.180 196.148,106.977 196.541 M297.078 197.257 C 297.282 197.651,297.502 197.973,297.567 197.973 C 297.633 197.973,297.520 197.651,297.317 197.257 C 297.113 196.863,296.893 196.541,296.827 196.541 C 296.762 196.541,296.875 196.863,297.078 197.257 M105.069 197.496 C 104.865 197.889,104.752 198.211,104.818 198.211 C 104.883 198.211,105.104 197.889,105.307 197.496 C 105.511 197.102,105.623 196.780,105.558 196.780 C 105.492 196.780,105.272 197.102,105.069 197.496 M101.491 197.734 C 101.287 198.128,101.174 198.450,101.240 198.450 C 101.306 198.450,101.526 198.128,101.729 197.734 C 101.933 197.340,102.046 197.018,101.980 197.018 C 101.914 197.018,101.694 197.340,101.491 197.734 M106.023 198.211 C 105.819 198.605,105.706 198.927,105.772 198.927 C 105.837 198.927,106.058 198.605,106.261 198.211 C 106.465 197.818,106.578 197.496,106.512 197.496 C 106.446 197.496,106.226 197.818,106.023 198.211 M104.205 198.986 C 104.049 199.281,103.765 199.791,103.575 200.119 C 103.243 200.691,103.246 200.696,103.630 200.239 C 104.106 199.673,104.773 198.450,104.606 198.450 C 104.542 198.450,104.361 198.691,104.205 198.986 M100.537 199.404 C 100.333 199.797,100.220 200.119,100.286 200.119 C 100.351 200.119,100.572 199.797,100.775 199.404 C 100.979 199.010,101.092 198.688,101.026 198.688 C 100.960 198.688,100.740 199.010,100.537 199.404 M299.463 201.312 C 299.667 201.705,299.887 202.027,299.953 202.027 C 300.018 202.027,299.905 201.705,299.702 201.312 C 299.498 200.918,299.278 200.596,299.213 200.596 C 299.147 200.596,299.260 200.918,299.463 201.312 M300.417 202.982 C 300.621 203.375,300.841 203.697,300.907 203.697 C 300.972 203.697,300.859 203.375,300.656 202.982 C 300.452 202.588,300.232 202.266,300.167 202.266 C 300.101 202.266,300.214 202.588,300.417 202.982 M301.371 204.651 C 301.575 205.045,301.795 205.367,301.861 205.367 C 301.926 205.367,301.814 205.045,301.610 204.651 C 301.407 204.258,301.186 203.936,301.121 203.936 C 301.055 203.936,301.168 204.258,301.371 204.651 M97.197 205.128 C 96.994 205.522,96.881 205.844,96.947 205.844 C 97.012 205.844,97.232 205.522,97.436 205.128 C 97.639 204.735,97.752 204.413,97.687 204.413 C 97.621 204.413,97.401 204.735,97.197 205.128 M96.243 206.798 C 96.040 207.191,95.927 207.513,95.993 207.513 C 96.058 207.513,96.278 207.191,96.482 206.798 C 96.685 206.404,96.798 206.082,96.733 206.082 C 96.667 206.082,96.447 206.404,96.243 206.798 M95.289 208.468 C 95.086 208.861,94.973 209.183,95.038 209.183 C 95.104 209.183,95.324 208.861,95.528 208.468 C 95.731 208.074,95.844 207.752,95.778 207.752 C 95.713 207.752,95.493 208.074,95.289 208.468 M303.757 208.706 C 303.960 209.100,304.180 209.422,304.246 209.422 C 304.312 209.422,304.199 209.100,303.995 208.706 C 303.792 208.312,303.572 207.990,303.506 207.990 C 303.440 207.990,303.553 208.312,303.757 208.706 M94.335 210.137 C 94.132 210.531,94.019 210.853,94.084 210.853 C 94.150 210.853,94.370 210.531,94.574 210.137 C 94.777 209.744,94.890 209.422,94.824 209.422 C 94.759 209.422,94.539 209.744,94.335 210.137 M304.711 210.376 C 304.914 210.769,305.134 211.091,305.200 211.091 C 305.266 211.091,305.153 210.769,304.949 210.376 C 304.746 209.982,304.526 209.660,304.460 209.660 C 304.394 209.660,304.507 209.982,304.711 210.376 M93.381 211.807 C 93.178 212.200,93.065 212.522,93.130 212.522 C 93.196 212.522,93.416 212.200,93.620 211.807 C 93.823 211.413,93.936 211.091,93.870 211.091 C 93.805 211.091,93.585 211.413,93.381 211.807 M305.665 212.045 C 305.868 212.439,306.089 212.761,306.154 212.761 C 306.220 212.761,306.107 212.439,305.903 212.045 C 305.700 211.652,305.480 211.330,305.414 211.330 C 305.349 211.330,305.461 211.652,305.665 212.045 M306.619 213.715 C 306.822 214.109,307.043 214.431,307.108 214.431 C 307.174 214.431,307.061 214.109,306.857 213.715 C 306.654 213.321,306.434 212.999,306.368 212.999 C 306.303 212.999,306.415 213.321,306.619 213.715 M309.004 217.770 C 309.208 218.163,309.428 218.485,309.493 218.485 C 309.559 218.485,309.446 218.163,309.243 217.770 C 309.039 217.376,308.819 217.054,308.753 217.054 C 308.688 217.054,308.801 217.376,309.004 217.770 M89.088 219.201 C 88.884 219.595,88.771 219.917,88.837 219.917 C 88.902 219.917,89.123 219.595,89.326 219.201 C 89.530 218.807,89.643 218.485,89.577 218.485 C 89.511 218.485,89.291 218.807,89.088 219.201 M309.958 219.439 C 310.162 219.833,310.382 220.155,310.448 220.155 C 310.513 220.155,310.400 219.833,310.197 219.439 C 309.993 219.046,309.773 218.724,309.707 218.724 C 309.642 218.724,309.755 219.046,309.958 219.439 M88.134 220.871 C 87.930 221.264,87.817 221.586,87.883 221.586 C 87.948 221.586,88.169 221.264,88.372 220.871 C 88.576 220.477,88.688 220.155,88.623 220.155 C 88.557 220.155,88.337 220.477,88.134 220.871 M87.179 222.540 C 86.976 222.934,86.863 223.256,86.929 223.256 C 86.994 223.256,87.214 222.934,87.418 222.540 C 87.622 222.147,87.734 221.825,87.669 221.825 C 87.603 221.825,87.383 222.147,87.179 222.540 M86.225 224.210 C 86.022 224.603,85.909 224.925,85.975 224.925 C 86.040 224.925,86.260 224.603,86.464 224.210 C 86.667 223.816,86.780 223.494,86.715 223.494 C 86.649 223.494,86.429 223.816,86.225 224.210 M313.298 225.164 C 313.501 225.558,313.721 225.880,313.787 225.880 C 313.852 225.880,313.740 225.558,313.536 225.164 C 313.333 224.770,313.112 224.448,313.047 224.448 C 312.981 224.448,313.094 224.770,313.298 225.164 M85.271 225.880 C 85.068 226.273,84.955 226.595,85.021 226.595 C 85.086 226.595,85.306 226.273,85.510 225.880 C 85.713 225.486,85.826 225.164,85.761 225.164 C 85.695 225.164,85.475 225.486,85.271 225.880 M314.252 226.834 C 314.455 227.227,314.675 227.549,314.741 227.549 C 314.807 227.549,314.694 227.227,314.490 226.834 C 314.287 226.440,314.066 226.118,314.001 226.118 C 313.935 226.118,314.048 226.440,314.252 226.834 M82.417 230.790 C 82.195 231.129,82.054 231.448,82.104 231.498 C 82.155 231.548,82.384 231.271,82.614 230.881 C 83.128 230.011,82.975 229.940,82.417 230.790 M317.591 232.558 C 317.794 232.952,318.015 233.274,318.080 233.274 C 318.146 233.274,318.033 232.952,317.829 232.558 C 317.626 232.165,317.406 231.843,317.340 231.843 C 317.275 231.843,317.387 232.165,317.591 232.558 M318.545 234.228 C 318.749 234.621,318.969 234.943,319.034 234.943 C 319.100 234.943,318.987 234.621,318.784 234.228 C 318.580 233.834,318.360 233.512,318.294 233.512 C 318.229 233.512,318.342 233.834,318.545 234.228 M80.024 234.943 C 79.820 235.337,79.707 235.659,79.773 235.659 C 79.839 235.659,80.059 235.337,80.262 234.943 C 80.466 234.550,80.579 234.228,80.513 234.228 C 80.448 234.228,80.227 234.550,80.024 234.943 M319.499 235.897 C 319.703 236.291,319.923 236.613,319.988 236.613 C 320.054 236.613,319.941 236.291,319.738 235.897 C 319.534 235.504,319.314 235.182,319.248 235.182 C 319.183 235.182,319.296 235.504,319.499 235.897 M79.070 236.613 C 78.866 237.007,78.753 237.329,78.819 237.329 C 78.885 237.329,79.105 237.007,79.308 236.613 C 79.512 236.219,79.625 235.897,79.559 235.897 C 79.493 235.897,79.273 236.219,79.070 236.613 M78.116 238.283 C 77.912 238.676,77.799 238.998,77.865 238.998 C 77.931 238.998,78.151 238.676,78.354 238.283 C 78.558 237.889,78.671 237.567,78.605 237.567 C 78.539 237.567,78.319 237.889,78.116 238.283 M77.162 239.952 C 76.958 240.346,76.845 240.668,76.911 240.668 C 76.976 240.668,77.197 240.346,77.400 239.952 C 77.604 239.559,77.716 239.237,77.651 239.237 C 77.585 239.237,77.365 239.559,77.162 239.952 M76.208 241.622 C 76.004 242.016,75.891 242.338,75.957 242.338 C 76.022 242.338,76.243 242.016,76.446 241.622 C 76.650 241.228,76.762 240.906,76.697 240.906 C 76.631 240.906,76.411 241.228,76.208 241.622 M322.838 241.622 C 323.042 242.016,323.262 242.338,323.328 242.338 C 323.393 242.338,323.280 242.016,323.077 241.622 C 322.873 241.228,322.653 240.906,322.588 240.906 C 322.522 240.906,322.635 241.228,322.838 241.622 M323.792 243.292 C 323.996 243.685,324.216 244.007,324.282 244.007 C 324.347 244.007,324.235 243.685,324.031 243.292 C 323.827 242.898,323.607 242.576,323.542 242.576 C 323.476 242.576,323.589 242.898,323.792 243.292 M324.747 244.961 C 324.950 245.355,325.170 245.677,325.236 245.677 C 325.301 245.677,325.189 245.355,324.985 244.961 C 324.782 244.568,324.561 244.246,324.496 244.246 C 324.430 244.246,324.543 244.568,324.747 244.961 M325.838 246.750 C 326.132 247.275,326.476 247.812,326.601 247.943 C 326.958 248.317,326.141 246.806,325.698 246.273 C 325.480 246.011,325.543 246.225,325.838 246.750 M72.868 247.346 C 72.665 247.740,72.552 248.062,72.617 248.062 C 72.683 248.062,72.903 247.740,73.107 247.346 C 73.310 246.953,73.423 246.631,73.358 246.631 C 73.292 246.631,73.072 246.953,72.868 247.346 M71.914 249.016 C 71.711 249.410,71.598 249.732,71.663 249.732 C 71.729 249.732,71.949 249.410,72.153 249.016 C 72.356 248.623,72.469 248.301,72.403 248.301 C 72.338 248.301,72.118 248.623,71.914 249.016 M327.132 249.016 C 327.335 249.410,327.555 249.732,327.621 249.732 C 327.687 249.732,327.574 249.410,327.370 249.016 C 327.167 248.623,326.947 248.301,326.881 248.301 C 326.815 248.301,326.928 248.623,327.132 249.016 M70.960 250.686 C 70.757 251.079,70.644 251.401,70.709 251.401 C 70.775 251.401,70.995 251.079,71.199 250.686 C 71.402 250.292,71.515 249.970,71.449 249.970 C 71.384 249.970,71.164 250.292,70.960 250.686 M328.086 250.686 C 328.289 251.079,328.510 251.401,328.575 251.401 C 328.641 251.401,328.528 251.079,328.324 250.686 C 328.121 250.292,327.901 249.970,327.835 249.970 C 327.770 249.970,327.882 250.292,328.086 250.686 M70.006 252.355 C 69.802 252.749,69.690 253.071,69.755 253.071 C 69.821 253.071,70.041 252.749,70.244 252.355 C 70.448 251.962,70.561 251.640,70.495 251.640 C 70.430 251.640,70.209 251.962,70.006 252.355 M69.052 254.025 C 68.848 254.419,68.736 254.741,68.801 254.741 C 68.867 254.741,69.087 254.419,69.290 254.025 C 69.494 253.631,69.607 253.309,69.541 253.309 C 69.476 253.309,69.255 253.631,69.052 254.025 M331.425 256.410 C 331.629 256.804,331.849 257.126,331.914 257.126 C 331.980 257.126,331.867 256.804,331.664 256.410 C 331.460 256.017,331.240 255.695,331.174 255.695 C 331.109 255.695,331.222 256.017,331.425 256.410 M332.379 258.080 C 332.583 258.473,332.803 258.795,332.869 258.795 C 332.934 258.795,332.821 258.473,332.618 258.080 C 332.414 257.686,332.194 257.364,332.128 257.364 C 332.063 257.364,332.176 257.686,332.379 258.080 M66.198 258.935 C 65.976 259.275,65.835 259.593,65.885 259.644 C 65.935 259.694,66.164 259.416,66.395 259.027 C 66.909 258.156,66.755 258.085,66.198 258.935 M333.333 259.750 C 333.537 260.143,333.757 260.465,333.823 260.465 C 333.888 260.465,333.775 260.143,333.572 259.750 C 333.368 259.356,333.148 259.034,333.083 259.034 C 333.017 259.034,333.130 259.356,333.333 259.750 M63.804 263.089 C 63.601 263.482,63.488 263.804,63.554 263.804 C 63.619 263.804,63.839 263.482,64.043 263.089 C 64.246 262.695,64.359 262.373,64.294 262.373 C 64.228 262.373,64.008 262.695,63.804 263.089 M335.719 263.804 C 335.922 264.198,336.142 264.520,336.208 264.520 C 336.273 264.520,336.161 264.198,335.957 263.804 C 335.754 263.411,335.533 263.089,335.468 263.089 C 335.402 263.089,335.515 263.411,335.719 263.804 M62.850 264.758 C 62.647 265.152,62.534 265.474,62.600 265.474 C 62.665 265.474,62.885 265.152,63.089 264.758 C 63.292 264.365,63.405 264.043,63.340 264.043 C 63.274 264.043,63.054 264.365,62.850 264.758 M336.673 265.474 C 336.876 265.868,337.096 266.190,337.162 266.190 C 337.228 266.190,337.115 265.868,336.911 265.474 C 336.708 265.081,336.487 264.758,336.422 264.758 C 336.356 264.758,336.469 265.081,336.673 265.474 M61.896 266.428 C 61.693 266.822,61.580 267.144,61.645 267.144 C 61.711 267.144,61.931 266.822,62.135 266.428 C 62.338 266.035,62.451 265.713,62.386 265.713 C 62.320 265.713,62.100 266.035,61.896 266.428 M337.627 267.144 C 337.830 267.537,338.050 267.859,338.116 267.859 C 338.182 267.859,338.069 267.537,337.865 267.144 C 337.662 266.750,337.442 266.428,337.376 266.428 C 337.310 266.428,337.423 266.750,337.627 267.144 M60.942 268.098 C 60.739 268.491,60.626 268.813,60.691 268.813 C 60.757 268.813,60.977 268.491,61.181 268.098 C 61.384 267.704,61.497 267.382,61.431 267.382 C 61.366 267.382,61.146 267.704,60.942 268.098 M338.581 268.813 C 338.784 269.207,339.004 269.529,339.070 269.529 C 339.136 269.529,339.023 269.207,338.819 268.813 C 338.616 268.420,338.396 268.098,338.330 268.098 C 338.264 268.098,338.377 268.420,338.581 268.813 M59.988 269.767 C 59.785 270.161,59.672 270.483,59.737 270.483 C 59.803 270.483,60.023 270.161,60.227 269.767 C 60.430 269.374,60.543 269.052,60.477 269.052 C 60.412 269.052,60.192 269.374,59.988 269.767 M340.012 271.199 C 340.215 271.592,340.436 271.914,340.501 271.914 C 340.567 271.914,340.454 271.592,340.250 271.199 C 340.047 270.805,339.827 270.483,339.761 270.483 C 339.696 270.483,339.808 270.805,340.012 271.199 M340.966 272.868 C 341.170 273.262,341.390 273.584,341.455 273.584 C 341.521 273.584,341.408 273.262,341.205 272.868 C 341.001 272.475,340.781 272.153,340.715 272.153 C 340.650 272.153,340.762 272.475,340.966 272.868 M341.920 274.538 C 342.124 274.931,342.344 275.253,342.409 275.253 C 342.475 275.253,342.362 274.931,342.159 274.538 C 341.955 274.144,341.735 273.822,341.669 273.822 C 341.604 273.822,341.717 274.144,341.920 274.538 M56.669 275.452 C 56.374 276.022,56.372 276.128,56.653 276.128 C 56.836 276.128,56.932 276.041,56.866 275.934 C 56.800 275.828,56.862 275.523,57.004 275.258 C 57.146 274.993,57.207 274.776,57.140 274.776 C 57.073 274.776,56.862 275.081,56.669 275.452 M55.695 277.162 C 55.491 277.555,55.378 277.877,55.444 277.877 C 55.510 277.877,55.730 277.555,55.933 277.162 C 56.137 276.768,56.250 276.446,56.184 276.446 C 56.118 276.446,55.898 276.768,55.695 277.162 M54.741 278.831 C 54.537 279.225,54.424 279.547,54.490 279.547 C 54.555 279.547,54.776 279.225,54.979 278.831 C 55.183 278.438,55.295 278.116,55.230 278.116 C 55.164 278.116,54.944 278.438,54.741 278.831 M345.259 280.262 C 345.463 280.656,345.683 280.978,345.749 280.978 C 345.814 280.978,345.701 280.656,345.498 280.262 C 345.294 279.869,345.074 279.547,345.009 279.547 C 344.943 279.547,345.056 279.869,345.259 280.262 M53.787 280.501 C 53.583 280.894,53.470 281.216,53.536 281.216 C 53.601 281.216,53.822 280.894,54.025 280.501 C 54.229 280.107,54.341 279.785,54.276 279.785 C 54.210 279.785,53.990 280.107,53.787 280.501 M346.213 281.932 C 346.417 282.326,346.637 282.648,346.703 282.648 C 346.768 282.648,346.656 282.326,346.452 281.932 C 346.248 281.538,346.028 281.216,345.963 281.216 C 345.897 281.216,346.010 281.538,346.213 281.932 M52.832 282.171 C 52.629 282.564,52.516 282.886,52.582 282.886 C 52.647 282.886,52.867 282.564,53.071 282.171 C 53.274 281.777,53.387 281.455,53.322 281.455 C 53.256 281.455,53.036 281.777,52.832 282.171 M347.168 283.602 C 347.371 283.995,347.591 284.317,347.657 284.317 C 347.722 284.317,347.610 283.995,347.406 283.602 C 347.203 283.208,346.982 282.886,346.917 282.886 C 346.851 282.886,346.964 283.208,347.168 283.602 M51.878 283.840 C 51.675 284.234,51.562 284.556,51.628 284.556 C 51.693 284.556,51.913 284.234,52.117 283.840 C 52.320 283.447,52.433 283.125,52.368 283.125 C 52.302 283.125,52.082 283.447,51.878 283.840 M50.924 285.510 C 50.721 285.903,50.608 286.225,50.673 286.225 C 50.739 286.225,50.959 285.903,51.163 285.510 C 51.366 285.116,51.479 284.794,51.414 284.794 C 51.348 284.794,51.128 285.116,50.924 285.510 M349.553 287.657 C 349.756 288.050,349.976 288.372,350.042 288.372 C 350.108 288.372,349.995 288.050,349.791 287.657 C 349.588 287.263,349.368 286.941,349.302 286.941 C 349.236 286.941,349.349 287.263,349.553 287.657 M350.630 289.573 C 350.900 290.102,351.068 290.621,351.003 290.726 C 350.939 290.831,351.035 290.916,351.217 290.916 C 351.464 290.916,351.401 290.626,350.964 289.763 C 350.642 289.129,350.326 288.611,350.259 288.611 C 350.193 288.611,350.360 289.044,350.630 289.573 M47.628 291.365 C 47.407 291.827,47.230 292.335,47.232 292.495 C 47.235 292.654,47.452 292.313,47.714 291.736 C 48.281 290.485,48.204 290.155,47.628 291.365 M351.461 303.160 C 351.257 303.554,351.145 303.876,351.210 303.876 C 351.276 303.876,351.496 303.554,351.699 303.160 C 351.903 302.767,352.016 302.445,351.950 302.445 C 351.885 302.445,351.664 302.767,351.461 303.160 M49.585 304.553 C 49.850 304.926,50.256 305.382,50.486 305.567 C 50.717 305.752,50.543 305.447,50.100 304.890 C 49.190 303.745,48.852 303.524,49.585 304.553 M349.299 306.082 L 348.599 306.857 349.374 306.157 C 350.096 305.504,350.259 305.307,350.074 305.307 C 350.033 305.307,349.685 305.656,349.299 306.082 M347.430 307.470 C 346.919 307.855,346.601 308.169,346.724 308.169 C 346.847 308.169,347.319 307.852,347.773 307.463 C 348.829 306.560,348.635 306.564,347.430 307.470 M53.309 308.067 C 53.890 308.528,56.071 309.662,56.175 309.557 C 56.216 309.515,55.481 309.078,54.541 308.584 C 53.601 308.091,53.047 307.858,53.309 308.067 M345.379 308.646 C 344.919 308.898,344.630 309.108,344.735 309.113 C 344.987 309.127,346.333 308.427,346.333 308.282 C 346.333 308.126,346.319 308.132,345.379 308.646 M341.801 309.839 C 341.321 309.993,341.298 310.031,341.682 310.037 C 341.944 310.041,342.373 309.952,342.636 309.839 C 343.243 309.578,342.616 309.578,341.801 309.839 " stroke="none" fill="#f29e9e" fill-rule="evenodd"></path><path id="path3" d="M196.615 44.703 C 190.536 45.902,189.418 47.256,177.698 67.621 C 172.941 75.886,167.253 85.760,165.056 89.565 C 162.860 93.369,148.047 119.076,132.138 146.691 C 75.412 245.153,61.627 269.077,55.376 279.905 C 51.892 285.939,48.800 291.466,48.505 292.187 C 46.096 298.069,49.796 305.781,56.297 308.426 C 59.374 309.678,52.568 309.626,200.716 309.549 L 339.773 309.477 341.682 308.958 C 350.551 306.544,354.182 299.755,350.779 291.950 C 350.134 290.470,339.183 271.461,317.114 233.512 C 315.244 230.298,308.642 218.921,302.442 208.229 C 291.040 188.569,273.642 158.577,251.522 120.453 C 244.862 108.974,233.345 89.117,225.930 76.327 C 218.514 63.536,212.121 52.588,211.724 51.998 C 207.857 46.254,202.317 43.579,196.615 44.703 M203.459 46.635 C 208.247 49.132,207.891 48.592,230.398 87.480 C 249.181 119.932,249.332 120.200,248.781 119.859 C 248.569 119.728,248.522 119.756,248.638 119.943 C 248.733 120.097,248.897 120.169,249.003 120.104 C 249.109 120.038,249.706 120.868,250.330 121.948 C 250.954 123.028,251.728 124.368,252.052 124.925 C 252.375 125.483,252.588 125.939,252.525 125.939 C 252.463 125.939,251.693 124.732,250.815 123.256 C 249.510 121.063,249.117 120.572,248.663 120.572 C 248.357 120.572,248.136 120.626,248.172 120.692 C 248.207 120.757,248.909 121.992,249.732 123.435 C 250.554 124.878,251.273 126.139,251.329 126.237 C 251.384 126.336,251.379 126.416,251.318 126.416 C 251.026 126.416,247.330 119.718,247.484 119.469 C 247.586 119.304,247.557 119.250,247.413 119.339 C 247.271 119.427,243.010 112.372,237.316 102.620 C 222.237 76.794,218.680 70.742,218.424 70.483 C 217.897 69.949,225.793 83.690,255.456 134.930 C 256.686 137.054,257.778 138.739,257.883 138.674 C 257.988 138.609,258.004 138.740,257.917 138.965 C 257.819 139.223,257.854 139.317,258.012 139.219 C 258.156 139.130,258.250 139.242,258.232 139.478 C 258.214 139.706,258.329 139.867,258.489 139.836 C 258.667 139.801,258.720 139.930,258.627 140.173 C 258.518 140.459,258.563 140.513,258.792 140.372 C 259.002 140.242,259.051 140.269,258.938 140.452 C 258.737 140.776,259.356 141.757,259.605 141.508 C 259.698 141.415,259.713 141.499,259.638 141.696 C 259.562 141.892,259.672 142.265,259.881 142.523 C 260.091 142.782,260.184 142.843,260.088 142.658 C 259.973 142.436,260.008 142.382,260.194 142.496 C 260.347 142.591,260.413 142.765,260.340 142.884 C 260.267 143.002,260.375 143.424,260.581 143.821 C 261.010 144.651,261.330 144.818,260.937 144.007 C 260.695 143.506,260.701 143.500,261.032 143.911 C 261.227 144.153,261.338 144.478,261.278 144.633 C 261.219 144.788,261.341 145.127,261.551 145.385 C 261.760 145.644,261.864 145.722,261.781 145.558 C 261.518 145.040,261.867 145.235,262.150 145.765 C 262.362 146.161,262.356 146.231,262.123 146.087 C 261.959 145.986,262.071 146.339,262.370 146.873 C 262.670 147.407,263.035 147.798,263.181 147.743 C 263.404 147.659,342.901 284.271,344.998 288.340 C 349.892 297.839,346.913 304.225,336.553 306.446 C 334.379 306.913,69.565 307.207,64.922 306.748 C 54.036 305.672,49.432 298.983,53.520 290.181 C 53.952 289.252,63.082 273.262,73.809 254.649 C 84.536 236.035,93.331 220.687,93.352 220.540 C 93.374 220.394,93.443 220.266,93.506 220.255 C 94.033 220.166,94.707 219.581,94.601 219.305 C 94.529 219.117,94.600 218.993,94.761 219.025 C 94.920 219.056,95.036 218.895,95.018 218.667 C 94.999 218.431,95.094 218.319,95.237 218.408 C 95.396 218.506,95.431 218.412,95.332 218.154 C 95.227 217.879,95.266 217.801,95.452 217.916 C 95.636 218.030,95.678 217.955,95.577 217.693 C 95.484 217.450,95.537 217.320,95.715 217.355 C 95.874 217.386,95.990 217.225,95.972 216.997 C 95.953 216.761,96.048 216.650,96.191 216.738 C 96.350 216.836,96.385 216.742,96.287 216.485 C 96.200 216.260,96.216 216.129,96.322 216.195 C 96.428 216.260,96.837 215.756,97.230 215.074 C 98.718 212.496,144.176 133.441,150.268 122.838 C 156.255 112.417,165.204 96.772,165.479 96.243 C 165.562 96.084,165.522 96.084,165.360 96.243 C 165.225 96.374,162.003 101.849,158.198 108.408 C 150.902 120.989,126.440 163.263,119.038 176.084 C 116.635 180.247,114.582 183.599,114.477 183.534 C 114.371 183.468,114.207 183.541,114.112 183.694 C 114.004 183.869,114.043 183.910,114.215 183.803 C 114.366 183.710,114.490 183.707,114.490 183.797 C 114.490 184.028,108.743 193.918,108.609 193.918 C 108.549 193.918,108.545 193.837,108.601 193.739 C 108.657 193.640,109.589 192.004,110.671 190.101 C 111.754 188.199,112.857 186.283,113.123 185.842 L 113.606 185.042 112.754 185.601 C 112.286 185.908,111.589 186.697,111.205 187.355 C 110.822 188.013,109.726 189.893,108.770 191.532 C 107.814 193.172,106.921 194.621,106.786 194.753 C 106.468 195.061,105.679 196.447,121.048 169.708 C 165.719 91.991,186.544 55.898,187.865 53.906 C 192.874 46.347,198.171 43.878,203.459 46.635 M166.846 93.500 C 166.642 93.894,166.529 94.216,166.595 94.216 C 166.660 94.216,166.881 93.894,167.084 93.500 C 167.288 93.107,167.400 92.785,167.335 92.785 C 167.269 92.785,167.049 93.107,166.846 93.500 M165.891 95.170 C 165.688 95.564,165.575 95.886,165.641 95.886 C 165.706 95.886,165.926 95.564,166.130 95.170 C 166.334 94.776,166.446 94.454,166.381 94.454 C 166.315 94.454,166.095 94.776,165.891 95.170 M199.937 102.850 C 199.398 103.743,195.305 110.822,170.311 154.085 C 160.572 170.942,152.390 185.087,152.127 185.518 C 151.791 186.071,151.745 186.281,151.973 186.234 C 152.371 186.150,153.389 184.602,153.223 184.334 C 153.157 184.226,153.206 184.138,153.332 184.138 C 153.563 184.138,154.978 181.801,155.095 181.226 C 155.130 181.058,155.280 180.812,155.430 180.681 C 155.579 180.549,164.691 164.824,175.677 145.736 C 186.663 126.649,196.727 109.169,198.041 106.892 C 200.058 103.399,200.468 102.822,200.672 103.195 C 204.717 110.604,226.049 148.328,226.313 148.539 C 226.518 148.703,226.610 148.837,226.517 148.837 C 226.423 148.837,226.566 149.267,226.834 149.791 C 227.101 150.316,227.443 150.745,227.594 150.745 C 227.744 150.745,227.800 150.813,227.718 150.895 C 227.515 151.097,228.214 152.415,228.523 152.415 C 228.659 152.415,228.693 152.539,228.600 152.690 C 228.488 152.871,228.535 152.901,228.736 152.776 C 228.941 152.650,229.003 152.697,228.925 152.918 C 228.764 153.373,229.420 154.613,229.722 154.426 C 229.856 154.343,229.938 154.420,229.904 154.597 C 229.795 155.153,230.186 155.983,230.681 156.248 C 231.317 156.588,232.573 158.870,215.443 128.563 C 198.085 97.852,200.518 101.887,199.937 102.850 M253.190 126.893 C 253.394 127.287,253.507 127.609,253.441 127.609 C 253.375 127.609,253.155 127.287,252.952 126.893 C 252.748 126.500,252.635 126.178,252.701 126.178 C 252.767 126.178,252.987 126.500,253.190 126.893 M251.998 127.370 C 252.201 127.764,252.314 128.086,252.248 128.086 C 252.183 128.086,251.963 127.764,251.759 127.370 C 251.556 126.977,251.443 126.655,251.508 126.655 C 251.574 126.655,251.794 126.977,251.998 127.370 M254.860 129.756 C 255.063 130.149,255.176 130.471,255.111 130.471 C 255.045 130.471,254.825 130.149,254.621 129.756 C 254.418 129.362,254.305 129.040,254.371 129.040 C 254.436 129.040,254.656 129.362,254.860 129.756 M219.857 162.840 C 220.152 162.897,220.635 162.897,220.930 162.840 C 221.225 162.783,220.984 162.736,220.394 162.736 C 219.803 162.736,219.562 162.783,219.857 162.840 M213.104 165.832 L 212.403 166.607 213.178 165.906 C 213.605 165.521,213.953 165.172,213.953 165.131 C 213.953 164.947,213.757 165.109,213.104 165.832 M177.698 166.408 C 172.303 166.787,169.393 167.284,168.273 168.019 C 167.096 168.790,164.742 174.657,163.524 179.853 L 163.215 181.174 164.610 180.509 C 168.947 178.443,185.712 171.657,194.156 168.550 C 198.937 166.790,198.971 166.887,193.441 166.485 C 190.520 166.272,180.336 166.223,177.698 166.408 M201.550 169.231 C 202.263 169.952,202.900 170.543,202.965 170.543 C 203.031 170.543,202.501 169.952,201.789 169.231 C 201.076 168.509,200.440 167.919,200.374 167.919 C 200.308 167.919,200.838 168.509,201.550 169.231 M175.472 180.481 C 175.385 180.568,175.315 180.756,175.317 180.898 C 175.319 181.070,175.379 181.065,175.496 180.883 C 175.592 180.732,175.939 180.559,176.267 180.498 L 176.863 180.387 176.247 180.354 C 175.908 180.337,175.560 180.394,175.472 180.481 M178.760 183.244 L 177.818 184.258 178.831 183.315 C 179.774 182.438,179.955 182.230,179.774 182.230 C 179.735 182.230,179.279 182.686,178.760 183.244 M174.702 187.537 L 174.001 188.312 174.776 187.612 C 175.203 187.227,175.552 186.878,175.552 186.837 C 175.552 186.652,175.355 186.815,174.702 187.537 M108.169 194.872 C 107.966 195.265,107.746 195.587,107.680 195.587 C 107.614 195.587,107.727 195.265,107.931 194.872 C 108.134 194.478,108.355 194.156,108.420 194.156 C 108.486 194.156,108.373 194.478,108.169 194.872 M106.261 195.826 C 106.058 196.219,105.837 196.541,105.772 196.541 C 105.706 196.541,105.819 196.219,106.023 195.826 C 106.226 195.432,106.446 195.110,106.512 195.110 C 106.578 195.110,106.465 195.432,106.261 195.826 M107.215 196.541 C 107.012 196.935,106.792 197.257,106.726 197.257 C 106.660 197.257,106.773 196.935,106.977 196.541 C 107.180 196.148,107.400 195.826,107.466 195.826 C 107.532 195.826,107.419 196.148,107.215 196.541 M105.307 197.496 C 105.104 197.889,104.883 198.211,104.818 198.211 C 104.752 198.211,104.865 197.889,105.069 197.496 C 105.272 197.102,105.492 196.780,105.558 196.780 C 105.623 196.780,105.511 197.102,105.307 197.496 M106.261 198.211 C 106.058 198.605,105.837 198.927,105.772 198.927 C 105.706 198.927,105.819 198.605,106.023 198.211 C 106.226 197.818,106.446 197.496,106.512 197.496 C 106.578 197.496,106.465 197.818,106.261 198.211 M104.377 199.106 C 104.187 199.466,103.851 199.976,103.630 200.239 C 103.246 200.696,103.243 200.691,103.575 200.119 C 103.765 199.791,104.049 199.281,104.205 198.986 C 104.361 198.691,104.542 198.450,104.606 198.450 C 104.670 198.450,104.567 198.745,104.377 199.106 M158.248 216.577 C 158.248 221.628,158.279 223.694,158.318 221.169 C 158.357 218.643,158.357 214.511,158.318 211.986 C 158.279 209.460,158.248 211.527,158.248 216.577 M172.771 223.852 C 172.772 224.902,172.814 225.301,172.864 224.740 C 172.915 224.179,172.914 223.321,172.863 222.832 C 172.811 222.344,172.770 222.803,172.771 223.852 M232.185 243.351 L 231.485 244.126 232.260 243.426 C 232.686 243.041,233.035 242.692,233.035 242.651 C 233.035 242.466,232.838 242.629,232.185 243.351 M263.392 255.456 C 263.392 256.047,263.439 256.288,263.496 255.993 C 263.553 255.698,263.553 255.215,263.496 254.919 C 263.439 254.624,263.392 254.866,263.392 255.456 M105.725 274.478 C 108.184 274.517,112.209 274.517,114.669 274.478 C 117.129 274.439,115.116 274.407,110.197 274.407 C 105.277 274.407,103.265 274.439,105.725 274.478 M224.371 274.717 C 230.428 274.752,240.410 274.752,246.553 274.717 C 252.696 274.681,247.740 274.652,235.540 274.652 C 223.339 274.652,218.313 274.681,224.371 274.717 M101.793 274.949 C 102.222 275.002,102.866 275.001,103.224 274.947 C 103.583 274.892,103.232 274.849,102.445 274.850 C 101.658 274.852,101.364 274.896,101.793 274.949 M232.499 275.193 C 233.843 275.235,236.044 275.235,237.388 275.193 C 238.733 275.150,237.633 275.116,234.943 275.116 C 232.254 275.116,231.154 275.150,232.499 275.193 " stroke="none" fill="#b67a76" fill-rule="evenodd"></path><path id="path4" d="M256.887 149.195 C 247.930 151.480,231.476 156.042,231.202 156.315 C 231.159 156.359,246.194 183.139,264.613 215.826 L 298.103 275.259 199.439 275.104 C 145.174 275.018,100.746 274.926,100.711 274.898 C 100.676 274.870,112.087 255.017,126.070 230.781 C 140.053 206.544,151.459 186.681,151.417 186.640 C 151.072 186.300,129.823 197.527,120.572 202.937 C 111.918 207.998,97.189 217.498,94.905 219.492 C 94.355 219.972,56.278 285.801,54.438 289.453 C 50.208 297.848,53.274 304.049,62.612 305.985 C 65.627 306.610,332.926 306.593,336.230 305.967 C 346.224 304.075,349.262 298.002,344.729 288.978 C 344.265 288.055,337.908 276.995,330.602 264.401 C 323.296 251.807,305.153 220.519,290.285 194.872 C 275.417 169.225,263.135 148.120,262.992 147.972 C 262.799 147.774,261.203 148.094,256.887 149.195 " stroke="none" fill="#fb0404" fill-rule="evenodd"></path></g></svg>